<svg xmlns:rdf="http://www.w3.org/1999/02/22-rdf-syntax-ns#" xmlns="http://www.w3.org/2000/svg" xmlns:cc="http://web.resource.org/cc/" xmlns:dc="http://purl.org/dc/elements/1.1/" xmlns:svg="http://www.w3.org/2000/svg" id="svg2" viewBox="0 0 400 380" version="1.0">
  <path id="path1891" fill-rule="evenodd" d="m151.35 307.2h113c0-16.06-1.15-19.25-27.75-19.25 4.25-12.75 21.52-43.59 31.12-43.59 8.5 0 18.63 0.47 18.63 19.84 0 22 37.02 57.48 46 43 13.38-21.56-23-14.98-23-67 0-71.15 41.52-61.02 41.52-101 0-20-5.52-22.7-5.52-37 0-18.893 16.65-17.796 13.41-33.465-2.24-10.823-3.99-19.503-5.29-32.591-0.93-9.287-1.23-19.185-10.87-18.787-11.33 0.468-15.63 20.417-33.25 21.848-17.58 1.427-32.57-14.967-39.38-12.625-6.74 2.321-4.62 20.625-0.62 33.625 6.29 20.432 20 46.995-5 50.995s-68 8-99 49-29.86 89.12-42 104c-40.759 49.96-82.526 29.45-82.526 71 0 18.61 31.525 32 36.525 26s-42.485-23.87 10.646-45c45.395-18.04 49.445-21.72 63.355-9z" fill="#ffffff"/>
  <metadata fill="#ffffff">
    <rdf:RDF fill="#ffffff">
      <cc:Work fill="#ffffff">
        <dc:format fill="#ffffff">image/svg+xml</dc:format>
        <dc:type rdf:resource="http://purl.org/dc/dcmitype/StillImage" fill="#ffffff"/>
        <cc:license rdf:resource="http://creativecommons.org/licenses/publicdomain/" fill="#ffffff"/>
        <dc:publisher fill="#ffffff">
          <cc:Agent rdf:about="http://openclipart.org/" fill="#ffffff">
            <dc:title fill="#ffffff">Openclipart</dc:title>
          </cc:Agent>
        </dc:publisher>
        <dc:title fill="#ffffff">Cat silhouette</dc:title>
        <dc:date fill="#ffffff">2006-11-03T05:40:34</dc:date>
        <dc:description fill="#ffffff">Silhouette of a cat.\n\nFrom http://commons.wikimedia.org/wiki/Image:Cat_silhouette.svg</dc:description>
        <dc:source fill="#ffffff">http://openclipart.org/detail/1198/cat-silhouette-by-liftarn</dc:source>
        <dc:creator fill="#ffffff">
          <cc:Agent fill="#ffffff">
            <dc:title fill="#ffffff">liftarn</dc:title>
          </cc:Agent>
        </dc:creator>
        <dc:subject fill="#ffffff">
          <rdf:Bag fill="#ffffff">
            <rdf:li fill="#ffffff">animal</rdf:li>
            <rdf:li fill="#ffffff">cat</rdf:li>
            <rdf:li fill="#ffffff">clip art</rdf:li>
            <rdf:li fill="#ffffff">clipart</rdf:li>
            <rdf:li fill="#ffffff">externalsource</rdf:li>
            <rdf:li fill="#ffffff">image</rdf:li>
            <rdf:li fill="#ffffff">media</rdf:li>
            <rdf:li fill="#ffffff">png</rdf:li>
            <rdf:li fill="#ffffff">public domain</rdf:li>
            <rdf:li fill="#ffffff">silhouette</rdf:li>
            <rdf:li fill="#ffffff">svg</rdf:li>
            <rdf:li fill="#ffffff">wikimedia commons</rdf:li>
          </rdf:Bag>
        </dc:subject>
      </cc:Work>
      <cc:License rdf:about="http://creativecommons.org/licenses/publicdomain/" fill="#ffffff">
        <cc:permits rdf:resource="http://creativecommons.org/ns#Reproduction" fill="#ffffff"/>
        <cc:permits rdf:resource="http://creativecommons.org/ns#Distribution" fill="#ffffff"/>
        <cc:permits rdf:resource="http://creativecommons.org/ns#DerivativeWorks" fill="#ffffff"/>
      </cc:License>
    </rdf:RDF>
  </metadata>
</svg>