<?xml version="1.0" standalone="no"?>
<!DOCTYPE svg PUBLIC "-//W3C//DTD SVG 20010904//EN"
 "http://www.w3.org/TR/2001/REC-SVG-20010904/DTD/svg10.dtd">
<svg version="1.0" xmlns="http://www.w3.org/2000/svg"
 width="1280.000000pt" height="1280.000000pt" viewBox="0 0 1280.000000 1280.000000"
 preserveAspectRatio="xMidYMid meet">
<metadata>
Created by potrace 1.15, written by Peter Selinger 2001-2017
</metadata>
<g transform="translate(0.000000,1280.000000) scale(0.100000,-0.100000)"
fill="#ffffff" stroke="none">
<path d="M8125 12180 c-55 -13 -100 -42 -171 -115 -98 -99 -199 -256 -310
-482 -116 -235 -140 -261 -331 -354 -169 -83 -253 -141 -354 -246 -211 -219
-368 -536 -444 -898 -20 -97 -31 -341 -18 -412 11 -59 8 -67 -85 -205 -153
-227 -385 -458 -614 -610 -188 -127 -363 -204 -594 -263 -280 -72 -461 -182
-695 -422 -192 -197 -396 -480 -589 -818 -101 -178 -366 -707 -400 -799 -138
-382 -167 -1104 -79 -1996 23 -233 62 -519 86 -630 22 -98 21 -305 -1 -469
-16 -120 -19 -129 -91 -275 -215 -434 -263 -855 -141 -1219 160 -477 637 -853
1285 -1017 271 -68 500 -94 826 -93 360 0 651 36 1013 123 430 104 856 271
946 371 42 46 45 70 11 97 -46 36 -118 47 -315 47 -204 0 -298 -10 -595 -60
-319 -54 -392 -60 -740 -60 -337 0 -454 8 -701 51 -678 115 -1096 385 -1180
760 -23 106 -15 256 21 379 14 49 28 91 30 93 2 2 57 -3 122 -12 224 -30 360
-37 928 -46 314 -5 721 -14 905 -21 355 -12 891 -7 1095 11 261 23 417 63 447
115 54 94 60 240 13 320 -69 119 -240 180 -580 208 l-150 12 47 27 c132 78
294 343 314 513 4 31 10 52 15 48 4 -4 44 -91 89 -192 106 -242 205 -436 278
-544 127 -191 275 -317 437 -373 73 -26 92 -28 215 -28 105 1 152 5 210 21
182 51 247 93 272 174 10 35 9 51 -5 103 -10 33 -19 66 -20 73 -1 6 23 24 53
40 69 37 107 89 122 170 13 72 2 112 -41 142 -38 27 -79 38 -241 66 -153 27
-221 53 -252 95 -12 17 -21 58 -28 125 -16 147 -23 1373 -12 1790 10 332 12
368 35 460 70 279 202 531 443 851 169 225 220 317 278 501 69 221 91 423 83
773 -6 278 -21 427 -87 843 -51 329 -55 363 -40 416 15 58 98 140 205 206 263
160 353 231 429 339 117 165 178 388 137 508 -17 52 -67 92 -148 118 -170 56
-285 146 -394 310 -115 173 -179 212 -478 294 -177 49 -219 67 -226 99 -3 12
-9 144 -15 292 -5 149 -14 308 -20 355 -31 245 -96 346 -205 320z"/>
</g>
</svg>
